<svg xmlns="http://www.w3.org/2000/svg" width="51.049" height="24.595" viewBox="0 0 51.049 24.595">
  <g id="Group_11" data-name="Group 11" transform="translate(0 0)">
    <path id="Path_34" data-name="Path 34" d="M4157.983,270.218c1.081-.691.6-1.707.663-2.643a5.417,5.417,0,0,1,2.575,1.071,8.558,8.558,0,0,1,3.557,7.538,8.244,8.244,0,0,1-2.556,6.061,6.418,6.418,0,0,1-4.3,1.837c-4.189.085-8.38.1-12.57.117q-5.777.026-11.553,0a8.744,8.744,0,0,1-7.25-3.6c-3.138-4.1-1.481-10.595,3.058-12.527a18.17,18.17,0,0,1,1.782-.552c-.086.9-.2,1.712-.233,2.53a2.217,2.217,0,0,0,.831,2.215c.077-.787.14-1.475.213-2.162a10.887,10.887,0,0,1,4.109-7.1,12.986,12.986,0,0,1,8.939-3.376,13.32,13.32,0,0,1,9.6,4.287,9.349,9.349,0,0,1,2.972,5.908A1.633,1.633,0,0,0,4157.983,270.218Z" transform="translate(-4113.735 -259.617)" fill="#fff"/>
    <path id="Path_35" data-name="Path 35" d="M4030.9,270.082c-.075,1.293-.5,2.5.741,3.508.287-5.294,3.29-8.09,8.062-9.138a8.925,8.925,0,0,1,7.644,2.2c-.311.342-.646.669-.932,1.034-.491.625-.931,1.292-1.436,1.9a1.383,1.383,0,0,1-.749.5c-3.94.607-6.276,3.032-7.527,6.649a10.287,10.287,0,0,0-.366,4.936,3.965,3.965,0,0,1,0,.515c-1.461,0-2.916-.028-4.369.009a4.434,4.434,0,0,1-2.821-.871,6.2,6.2,0,0,1-2.552-6.064,5.8,5.8,0,0,1,2.659-4.421A12.6,12.6,0,0,1,4030.9,270.082Z" transform="translate(-4026.547 -263.753)" fill="#fff"/>
  </g>
</svg>
