<svg xmlns="http://www.w3.org/2000/svg" width="45.348" height="39.359" viewBox="0 0 45.348 39.359">
  <g id="pSJAeK.tif" transform="translate(-3431.12 -134.282)" opacity="0.609">
    <g id="Group_10" data-name="Group 10" transform="translate(3431.12 134.282)">
      <path id="Path_30" data-name="Path 30" d="M3448.519,440.6q-7.846,0-15.691,0c-1.614,0-1.8-.135-1.676-1.763.542-7.1,4.106-12.133,10.56-15.1a1.7,1.7,0,0,1,1.437.188c3.594,2.635,7.149,2.636,10.767,0a1.752,1.752,0,0,1,1.425-.211A17.467,17.467,0,0,1,3466,439.38c.005,1.155-.694,1.23-1.556,1.228Q3456.482,440.6,3448.519,440.6Z" transform="translate(-3431.12 -401.249)" fill="#fff"/>
      <path id="Path_31" data-name="Path 31" d="M3567.308,206.966a10.214,10.214,0,0,1-5.066,8.158,5.93,5.93,0,0,1-5.757.247c-4.024-1.838-6.464-7.453-5.089-11.65a8.189,8.189,0,0,1,9.268-5.507C3564.5,198.88,3567.357,202.373,3567.308,206.966Z" transform="translate(-3541.729 -193.148)" fill="#fff"/>
      <path id="Path_32" data-name="Path 32" d="M3756.078,295.984a7.938,7.938,0,0,0,5.049,2.456,6.687,6.687,0,0,0,4.925-1.887c.424-.388.744-.569,1.313-.238a12.5,12.5,0,0,1,6.626,10.479c.091,1.337-.131,1.536-1.438,1.538-4.01.007-8.02.012-12.03-.012a2.192,2.192,0,0,1-1.178-.335c-1.891-1.316-3.748-2.68-5.719-4.1A13.294,13.294,0,0,0,3756.078,295.984Z" transform="translate(-3728.661 -283.466)" fill="#fff"/>
      <path id="Path_33" data-name="Path 33" d="M3788.282,140.933a7.556,7.556,0,0,1-2.956,5.412,4.722,4.722,0,0,1-5.8.22,7.685,7.685,0,0,1-3.162-7.488,5.992,5.992,0,0,1,6.709-4.75C3786.087,134.671,3788.335,137.309,3788.282,140.933Z" transform="translate(-3749.522 -134.282)" fill="#fff"/>
    </g>
  </g>
</svg>
