<svg xmlns="http://www.w3.org/2000/svg" width="32.584" height="32.581" viewBox="0 0 32.584 32.581">
  <g id="eIfhXP.tif" transform="translate(-1750.912 729.077)">
    <g id="Group_5" data-name="Group 5" transform="translate(1750.912 -729.077)">
      <path id="Path_19" data-name="Path 19" d="M1757.886-699.091c.171-1.1.3-2.12.5-3.126a1.206,1.206,0,0,0-.368-1.188,1.491,1.491,0,0,0-1.631-.529c-.874.21-1.78.283-2.669.435a.354.354,0,0,1-.423-.179,16.871,16.871,0,0,1-2.363-5.682.4.4,0,0,1,.18-.466c.9-.648,1.8-1.314,2.7-1.96a.479.479,0,0,0,.239-.489,2.538,2.538,0,0,1,0-.666.967.967,0,0,0-.513-1.058c-.832-.557-1.63-1.164-2.426-1.771a.514.514,0,0,1-.166-.419,15.98,15.98,0,0,1,2.373-5.711.515.515,0,0,1,.42-.161q1.67.233,3.333.516a.452.452,0,0,0,.477-.175,3.116,3.116,0,0,1,.52-.527.852.852,0,0,0,.347-.982c-.19-1.007-.327-2.024-.5-3.036a.387.387,0,0,1,.207-.45,16.868,16.868,0,0,1,5.614-2.336.435.435,0,0,1,.527.193c.635.9,1.3,1.777,1.938,2.672a.457.457,0,0,0,.486.244.689.689,0,0,1,.259,0,1.54,1.54,0,0,0,1.777-.924c.422-.695.957-1.321,1.426-1.988a.415.415,0,0,1,.492-.2,16.469,16.469,0,0,1,5.672,2.379.471.471,0,0,1,.169.377c-.159,1.125-.349,2.246-.508,3.372a.766.766,0,0,0,.141.447c.074.122.235.192.311.314a1.336,1.336,0,0,0,1.652.524c.854-.191,1.731-.283,2.6-.429a.389.389,0,0,1,.455.2,16.919,16.919,0,0,1,2.353,5.686.363.363,0,0,1-.172.431c-.9.649-1.795,1.316-2.7,1.963a.494.494,0,0,0-.253.522,1.224,1.224,0,0,1,.013.443c-.157.689.181,1.073.733,1.426.759.485,1.461,1.06,2.2,1.582a.384.384,0,0,1,.178.463,16.841,16.841,0,0,1-2.343,5.65.4.4,0,0,1-.478.206c-1.108-.19-2.22-.361-3.333-.519a.625.625,0,0,0-.413.139c-.175.134-.291.349-.473.467a1.033,1.033,0,0,0-.413,1.239c.191.969.326,1.95.463,2.928a.437.437,0,0,1-.161.348,16.029,16.029,0,0,1-5.746,2.384.517.517,0,0,1-.408-.191q-.995-1.317-1.951-2.663a.52.52,0,0,0-.552-.261,1.364,1.364,0,0,1-.48.011,1.145,1.145,0,0,0-1.315.663c-.5.777-1.089,1.5-1.628,2.255a.384.384,0,0,1-.457.192,16.572,16.572,0,0,1-5.648-2.344A1.754,1.754,0,0,1,1757.886-699.091Zm9.289-20.85a7.147,7.147,0,0,0-7.126,7.05,7.139,7.139,0,0,0,7.086,7.2,7.143,7.143,0,0,0,7.164-7.087A7.141,7.141,0,0,0,1767.175-719.941Z" transform="translate(-1750.912 729.077)" fill="#fff"/>
    </g>
  </g>
</svg>
