<svg xmlns="http://www.w3.org/2000/svg" width="34.911" height="43.022" viewBox="0 0 34.911 43.022">
  <g id="sQCj1Y.tif" transform="translate(-3431.12 381.309)" opacity="0.609">
    <g id="Group_8" data-name="Group 8" transform="translate(3431.12 -381.309)">
      <path id="Path_21" data-name="Path 21" d="M3431.121-359.794q0-7.015,0-14.031a7.284,7.284,0,0,1,7.481-7.482c4.566,0,9.132.008,13.7,0a5.351,5.351,0,0,1,3.963,1.646q4.061,4.078,8.138,8.14a5.223,5.223,0,0,1,1.62,3.831c0,7.356.023,14.712-.007,22.068a7.229,7.229,0,0,1-7.38,7.329q-10.083.017-20.167,0a7.264,7.264,0,0,1-7.344-7.373q-.014-7.063,0-14.126Zm2.431,0q0,7.015,0,14.03a4.861,4.861,0,0,0,4.989,5.04q9.987.018,19.975,0a4.853,4.853,0,0,0,5.08-5.09q.008-10.867,0-21.734a3.052,3.052,0,0,0-.925-2.263q-4.074-4.064-8.137-8.139a3,3,0,0,0-2.214-.926c-4.613,0-9.226-.016-13.839.007a4.846,4.846,0,0,0-4.931,5Q3433.548-366.833,3433.552-359.794Z" transform="translate(-3431.12 381.309)" fill="#fff"/>
      <path id="Path_22" data-name="Path 22" d="M3507.457-266.587a4.169,4.169,0,0,1-4.014-3.876,4,4,0,0,1,1.075-3.049,4.193,4.193,0,0,1,2.94-1.353c0-.346-.007-.659,0-.971a1.255,1.255,0,0,1,1.2-1.327,1.237,1.237,0,0,1,1.234,1.336c0,.3,0,.6,0,.977.614,0,1.194-.021,1.771.005a1.188,1.188,0,0,1,1.181,1.231,1.2,1.2,0,0,1-1.22,1.192c-.4.012-.792,0-1.188,0h-.508v3.371a4.176,4.176,0,0,1,3.343,1.923,4.055,4.055,0,0,1,.613,2.725,4.15,4.15,0,0,1-3.991,3.619c0,.336,0,.678,0,1.02a1.219,1.219,0,0,1-1.2,1.273,1.207,1.207,0,0,1-1.234-1.186c-.024-.345,0-.693,0-1.125-.524,0-1.007,0-1.49,0a1.24,1.24,0,0,1-1.384-1.181,1.242,1.242,0,0,1,1.377-1.24c.472,0,.944,0,1.49,0v-3.366Zm2.472.031v3.286a1.641,1.641,0,0,0,1.649-1.63A1.638,1.638,0,0,0,3509.929-266.556Zm-2.5-5.832a1.649,1.649,0,0,0-1.63,1.821,1.568,1.568,0,0,0,1.63,1.464Z" transform="translate(-3497.007 286.417)" fill="#fff"/>
      <path id="Path_23" data-name="Path 23" d="M3519.416-26.488q-4.564,0-9.128,0a1.235,1.235,0,0,1-1.3-1.659,1.252,1.252,0,0,1,1.285-.787q2.877-.006,5.753,0,6.3,0,12.6,0a1.222,1.222,0,0,1,1.244,1.718,1.306,1.306,0,0,1-1.326.732Q3523.979-26.495,3519.416-26.488Z" transform="translate(-3501.991 60.248)" fill="#fff"/>
      <path id="Path_24" data-name="Path 24" d="M3661.351-226.863c.712,0,1.425,0,2.137,0a1.254,1.254,0,0,1,1.372,1.2,1.246,1.246,0,0,1-1.371,1.247q-2.161.008-4.322,0a1.254,1.254,0,0,1-1.377-1.246,1.263,1.263,0,0,1,1.375-1.2c.364,0,.728,0,1.092,0Z" transform="translate(-3637.65 240.588)" fill="#fff"/>
      <path id="Path_25" data-name="Path 25" d="M3661.332-144.857c.744,0,1.488-.006,2.231,0a1.212,1.212,0,0,1,1.3,1.212,1.2,1.2,0,0,1-1.261,1.2q-2.279.016-4.558,0a1.2,1.2,0,0,1-1.252-1.211,1.213,1.213,0,0,1,1.264-1.2c.38-.009.76,0,1.139,0h1.14Z" transform="translate(-3637.648 165.87)" fill="#fff"/>
    </g>
  </g>
</svg>
