<svg xmlns="http://www.w3.org/2000/svg" width="28.169" height="38.918" viewBox="0 0 28.169 38.918">
  <g id="zlQ7zy.tif" transform="translate(-1801.325 320.286)">
    <g id="Group_6" data-name="Group 6" transform="translate(1801.325 -320.286)">
      <path id="Path_20" data-name="Path 20" d="M1824.654-316.73h-19.773v.5q0,16.756,0,33.512a4.784,4.784,0,0,1-.013.585.766.766,0,0,1-.78.723c-.66.016-1.322.019-1.982,0-.5-.014-.772-.341-.776-.913-.01-1.231,0-2.462,0-3.693q0-15.788,0-31.575a2.456,2.456,0,0,1,1.78-2.6,3.345,3.345,0,0,1,.846-.087q11.441-.007,22.882,0a2.433,2.433,0,0,1,2.657,2.655q0,17.567,0,35.133c0,.851-.246,1.025-1.1,1.1-1.767.162-3.359-.511-5-.956-2.777-.755-5.541-1.554-8.311-2.336-.691-.195-.892-.462-.892-1.2q0-13.445,0-26.891c0-.741.192-.993.894-1.191l9.557-2.7Zm-8.979,18.5a7.647,7.647,0,0,0,.534,1.32.756.756,0,0,0,1.312,0,2.438,2.438,0,0,0,0-2.657.763.763,0,0,0-1.339.02A7.865,7.865,0,0,0,1815.675-298.23Z" transform="translate(-1801.326 320.286)" fill="#fff"/>
    </g>
  </g>
</svg>
