<svg xmlns="http://www.w3.org/2000/svg" width="60.579" height="55.501" viewBox="0 0 60.579 55.501">
  <g id="Group_2" data-name="Group 2" transform="translate(-2004.571 -444.041)">
    <path id="Path_9" data-name="Path 9" d="M2348.457,518.543c-.8-.982-1.662-1.922-2.4-2.956q-9.633-13.544-19.221-27.123c-.45-.638-.829-1.326-1.242-1.991l.272-.486a21.448,21.448,0,0,1,2.483.658q8.776,3.438,17.525,6.947a6.126,6.126,0,0,0,6.869-1.21q16.283-14.364,32.6-28.695a3,3,0,0,0,.432-.646h.4a12.337,12.337,0,0,1-.865,2q-16.963,25.778-33.97,51.52a20.824,20.824,0,0,1-1.681,1.982Z" transform="translate(-321.026 -19)" fill="#00b9f2"/>
  </g>
</svg>
