<svg xmlns="http://www.w3.org/2000/svg" width="514.4" height="113" viewBox="0 0 514.4 113"><title>Asset 2</title><g id="Layer_2" data-name="Layer 2"><g id="Layer_1-2" data-name="Layer 1"><path d="M47.9,113C21.2,113,0,95.7,0,64.6S21.2,16.3,47.9,16.3,96,33.6,96,64.7,74.6,113,47.9,113Zm0-88.2c-20.8,0-37.6,14.3-37.6,39.8s16.8,39.9,37.6,39.9S85.7,90.4,85.7,64.7,68.9,24.8,47.9,24.8Z" fill="#fff"/><path d="M118.9,48.3V81.4c0,15.9,4.1,23.7,17,23.7,9.7,0,21.4-7,21.4-25.1V48.3h9.1v63.4h-9.1V99.2c-4.7,10.4-14.7,13.8-22.9,13.8-18.1,0-24.7-11.6-24.7-31.4V48.3Z" fill="#fff"/><path d="M214.6,112.5c-2.4.2-4.8.2-7,.2-13.8-.3-19.5-7.3-19.5-24.9V56.1H176.2l2.2-7.8h9.7V34.7l9.1-2.1V48.3h18.3v7.8H197.2V87.9c0,15.8,5.3,17.9,19.4,16.7Z" fill="#fff"/><path d="M252.1,112.7,219.6,48.3h10.3l22.9,47.8,22.9-47.8h10.4l-32.3,64.4Z" fill="#fff"/><path d="M320.6,113c-18,0-32.6-11.7-32.6-32.8s14.6-32.9,32.6-32.9,32.7,11.8,32.7,33S338.8,113,320.6,113Zm-.1-57.5c-12.9,0-23.4,8.8-23.4,24.7s10.5,24.7,23.4,24.7S344,96.3,344,80.3,333.7,55.5,320.5,55.5Z" fill="#fff"/><path d="M368.1,111.7V48.3h9.1v63.4Z" fill="#fff"/><path d="M392.1,80c0-20.9,14.1-32.9,33.2-32.9a37.8,37.8,0,0,1,21.1,6.6l-1.8,8.1c-2.6-1.5-9.7-6.5-19.3-6.5C411.5,55.3,401,64,401,79.9s10.3,25,24.3,25c8.8,0,15.6-4.2,19.3-6.7l4.2,7.3c-8.2,5.5-15.8,7.5-23.5,7.5C406.2,113,392.1,100.7,392.1,80Z" fill="#fff"/><path d="M465,81.4c0,15.2,9.7,23.5,24.2,23.5a27.6,27.6,0,0,0,18.3-6.5l4.7,6.8c-8,5.9-14.6,7.8-23,7.8-20.8,0-33.3-12.6-33.3-33S469,47.3,486.1,47.3s27.2,10.4,28.2,26.5a46.9,46.9,0,0,1,0,7.6Zm.5-7.3h40.6c-.6-12.9-9.1-19.2-19.8-19.2S467.5,61.7,465.5,74.1Z" fill="#fff"/><path d="M372.8,40.2,371,38.1,357.1,18.4l-.9-1.4.2-.4,1.8.5,12.7,5a4.4,4.4,0,0,0,5-.8L399.5.5l.3-.5h.3a5.9,5.9,0,0,1-.6,1.4L374.9,38.8l-1.2,1.4Z" fill="#fff"/></g></g></svg>