<svg xmlns="http://www.w3.org/2000/svg" xmlns:xlink="http://www.w3.org/1999/xlink" width="931.707" height="425.096" viewBox="0 0 931.707 425.096">
  <defs>
    <filter id="Rectangle_22" x="0" y="0" width="755.105" height="322.439" filterUnits="userSpaceOnUse">
      <feOffset dy="3" input="SourceAlpha"/>
      <feGaussianBlur stdDeviation="17.5" result="blur"/>
      <feFlood flood-opacity="0.565"/>
      <feComposite operator="in" in2="blur"/>
      <feComposite in="SourceGraphic"/>
    </filter>
    <filter id="Rectangle_22-2" x="176.601" y="167.934" width="755.105" height="257.162" filterUnits="userSpaceOnUse">
      <feOffset dy="3" input="SourceAlpha"/>
      <feGaussianBlur stdDeviation="17.5" result="blur-2"/>
      <feFlood flood-opacity="0.565"/>
      <feComposite operator="in" in2="blur-2"/>
      <feComposite in="SourceGraphic"/>
    </filter>
    <filter id="Path_1133" x="331.77" y="297.619" width="74.873" height="41.86" filterUnits="userSpaceOnUse">
      <feOffset input="SourceAlpha"/>
      <feGaussianBlur stdDeviation="3" result="blur-3"/>
      <feFlood flood-color="#00b9f2"/>
      <feComposite operator="in" in2="blur-3"/>
      <feComposite in="SourceGraphic"/>
    </filter>
    <filter id="Path_1134" x="555.643" y="297.619" width="74.873" height="41.86" filterUnits="userSpaceOnUse">
      <feOffset input="SourceAlpha"/>
      <feGaussianBlur stdDeviation="3" result="blur-4"/>
      <feFlood flood-color="#00b9f2"/>
      <feComposite operator="in" in2="blur-4"/>
      <feComposite in="SourceGraphic"/>
    </filter>
  </defs>
  <g id="Group_84" data-name="Group 84" transform="translate(-2340.5 -1686.924)">
    <g id="Group_80" data-name="Group 80" transform="translate(2393 1736.424)">
      <g transform="matrix(1, 0, 0, 1, -52.5, -49.5)" filter="url(#Rectangle_22)">
        <rect id="Rectangle_22-3" data-name="Rectangle 22" width="650.105" height="217.439" rx="15" transform="translate(52.5 49.5)" fill="#2e2c40"/>
      </g>
    </g>
    <line id="Line_6" data-name="Line 6" y2="22.723" transform="translate(3009.281 1744.257)" fill="none" stroke="#fff" stroke-width="3"/>
    <line id="Line_7" data-name="Line 7" x1="22.218" transform="translate(2998.172 1755.871)" fill="none" stroke="#fff" stroke-width="3"/>
    <path id="Rectangle_53" data-name="Rectangle 53" d="M15,0H635.214a15,15,0,0,1,15,15V42.812a0,0,0,0,1,0,0H0a0,0,0,0,1,0,0V15A15,15,0,0,1,15,0Z" transform="translate(2393 1734)" fill="#fff" opacity="0.149"/>
    <g id="Group_81" data-name="Group 81" transform="translate(2419.758 1745.595)">
      <g id="Group_15" data-name="Group 15" transform="translate(0 0)">
        <g id="Group_12" data-name="Group 12" transform="translate(0 0)">
          <text id="Hours_List_View" data-name="Hours | List View" transform="translate(0 15)" fill="#fff" font-size="15" font-family="Montserrat-SemiBold, Montserrat" font-weight="600"><tspan x="0" y="0">Hours </tspan><tspan y="0" font-family="Montserrat-Regular, Montserrat" font-weight="400">|</tspan><tspan y="0"> </tspan><tspan y="0" font-family="Montserrat-Regular, Montserrat" font-weight="400">List View</tspan></text>
        </g>
      </g>
    </g>
    <text id="March_20th" data-name="March 20th" transform="translate(2417.974 1809.651)" fill="#fff" font-size="16" font-family="Montserrat-SemiBold, Montserrat" font-weight="600"><tspan x="0" y="0">March 20th</tspan></text>
    <text id="_6_hours" data-name="6 hours" transform="translate(2923.696 1809.651)" fill="#fff" font-size="15" font-family="Montserrat-Regular, Montserrat" opacity="0.237"><tspan x="0" y="0">6 hours</tspan></text>
    <text id="March_23rd" data-name="March 23rd" transform="translate(2418.866 1864.95)" fill="#fff" font-size="16" font-family="Montserrat-SemiBold, Montserrat" font-weight="600"><tspan x="0" y="0">March 23rd</tspan></text>
    <text id="_6_hours-2" data-name="6 hours" transform="translate(2924.588 1864.95)" fill="#fff" font-size="15" font-family="Montserrat-Regular, Montserrat" opacity="0.237"><tspan x="0" y="0">6 hours</tspan></text>
    <path id="Path_1130" data-name="Path 1130" d="M12.706,0V12.593H0Z" transform="translate(2998.593 1859.802) rotate(-45)" fill="#fff" opacity="0.516"/>
    <text id="April_2nd" data-name="April 2nd" transform="translate(2418.866 1920.25)" fill="#fff" font-size="15" font-family="Montserrat-SemiBold, Montserrat" font-weight="600"><tspan x="0" y="0">April 2nd</tspan></text>
    <text id="_6_hours-3" data-name="6 hours" transform="translate(2924.588 1920.25)" fill="#fff" font-size="15" font-family="Montserrat-Regular, Montserrat" opacity="0.237"><tspan x="0" y="0">6 hours</tspan></text>
    <path id="Path_1131" data-name="Path 1131" d="M12.706,0V12.593H0Z" transform="translate(2998.593 1915.101) rotate(-45)" fill="#fff" opacity="0.516"/>
    <path id="Path_1132" data-name="Path 1132" d="M12.706,0V12.593H0Z" transform="translate(2998.593 1805.394) rotate(-45)" fill="#fff" opacity="0.516"/>
    <g id="Group_82" data-name="Group 82" transform="translate(2569.601 1904.358)">
      <g transform="matrix(1, 0, 0, 1, -229.1, -217.43)" filter="url(#Rectangle_22-2)">
        <rect id="Rectangle_22-4" data-name="Rectangle 22" width="650.105" height="152.162" rx="15" transform="translate(229.1 217.43)" fill="#2e2c40"/>
      </g>
    </g>
    <path id="Rectangle_54" data-name="Rectangle 54" d="M15,0H635.214a15,15,0,0,1,15,15V42.812a0,0,0,0,1,0,0H0a0,0,0,0,1,0,0V15A15,15,0,0,1,15,0Z" transform="translate(2569.601 1904.358)" fill="#fff" opacity="0.149"/>
    <g id="Group_83" data-name="Group 83" transform="translate(2596.359 1915.953)">
      <g id="Group_15-2" data-name="Group 15" transform="translate(0 0)">
        <g id="Group_12-2" data-name="Group 12" transform="translate(0 0)">
          <text id="Highlights_Current_Project" data-name="Highlights | Current Project" transform="translate(0 15)" fill="#fff" font-size="16" font-family="Montserrat-SemiBold, Montserrat" font-weight="600"><tspan x="0" y="0">Highlights </tspan><tspan y="0" font-family="Montserrat-Regular, Montserrat" font-weight="400">|</tspan><tspan y="0"> </tspan><tspan y="0" font-family="Montserrat-Regular, Montserrat" font-weight="400">Current Project</tspan></text>
        </g>
      </g>
    </g>
    <text id="Hours" transform="translate(2605.279 1976.831)" fill="#fff" font-size="11" font-family="Montserrat-Regular, Montserrat" opacity="0.354"><tspan x="0" y="0">Hours</tspan></text>
    <text id="Income" transform="translate(2829.152 1976.831)" fill="#fff" font-size="11" font-family="Montserrat-Regular, Montserrat" opacity="0.354"><tspan x="0" y="0">Income</tspan></text>
    <text id="Deadline" transform="translate(3053.025 1976.831)" fill="#fff" font-size="11" font-family="Montserrat-Regular, Montserrat" opacity="0.354"><tspan x="0" y="0">Deadline</tspan></text>
    <text id="_34.2" data-name="34.2" transform="translate(2605.279 2011.767)" fill="#fff" font-size="21" font-family="Montserrat-Regular, Montserrat"><tspan x="0" y="0">34.2</tspan></text>
    <text id="_1_245" data-name="$1,245" transform="translate(2829.152 2011.767)" fill="#fff" font-size="21" font-family="Montserrat-Regular, Montserrat"><tspan x="0" y="0">$1,245</tspan></text>
    <text id="_05.02.2019" data-name="05.02.2019" transform="translate(3053.025 2011.767)" fill="#fff" font-size="21" font-family="Montserrat-Regular, Montserrat" letter-spacing="0.05em"><tspan x="0" y="0">05.02.2019</tspan></text>
    <g transform="matrix(1, 0, 0, 1, 2340.5, 1686.92)" filter="url(#Path_1133)">
      <path id="Path_1133-2" data-name="Path 1133" d="M5263.5-343.7s2.058-3.136,5.532-2.237,3.862,7.579,7.947,7.046,15.121-13.227,19.252-18.473,5.981-.78,9.555,4.034,4.055.139,5.69,1.139,5.235,7.96,5.9,10.064" transform="translate(-4921.24 667.85)" fill="none" stroke="#00b9f2" stroke-linecap="round" stroke-width="3"/>
    </g>
    <g transform="matrix(1, 0, 0, 1, 2340.5, 1686.92)" filter="url(#Path_1134)">
      <path id="Path_1134-2" data-name="Path 1134" d="M5263.5-343.7s2.058-3.136,5.532-2.237,3.862,7.579,7.947,7.046,15.121-13.227,19.252-18.473,5.981-.78,9.555,4.034,4.055.139,5.69,1.139,5.235,7.96,5.9,10.064" transform="translate(-4697.36 667.85)" fill="none" stroke="#00b9f2" stroke-linecap="round" stroke-width="3"/>
    </g>
  </g>
</svg>
