<svg xmlns="http://www.w3.org/2000/svg" xmlns:xlink="http://www.w3.org/1999/xlink" width="748.082" height="404.389" viewBox="0 0 748.082 404.389">
  <defs>
    <filter id="Rectangle_22" x="0" y="46.603" width="655.855" height="357.787" filterUnits="userSpaceOnUse">
      <feOffset dy="3" input="SourceAlpha"/>
      <feGaussianBlur stdDeviation="17.5" result="blur"/>
      <feFlood flood-opacity="0.565"/>
      <feComposite operator="in" in2="blur"/>
      <feComposite in="SourceGraphic"/>
    </filter>
    <filter id="Rectangle_22-2" x="232.49" y="0" width="515.592" height="273.47" filterUnits="userSpaceOnUse">
      <feOffset dy="3" input="SourceAlpha"/>
      <feGaussianBlur stdDeviation="17.5" result="blur-2"/>
      <feFlood flood-opacity="0.565"/>
      <feComposite operator="in" in2="blur-2"/>
      <feComposite in="SourceGraphic"/>
    </filter>
  </defs>
  <g id="Group_90" data-name="Group 90" transform="translate(-59.5 -2111.872)">
    <g id="Group_87" data-name="Group 87" transform="translate(112 2207.975)">
      <g transform="matrix(1, 0, 0, 1, -52.5, -96.1)" filter="url(#Rectangle_22)">
        <rect id="Rectangle_22-3" data-name="Rectangle 22" width="550.855" height="252.787" rx="15" transform="translate(52.5 96.1)" fill="#2e2c40"/>
      </g>
    </g>
    <path id="Rectangle_56" data-name="Rectangle 56" d="M15,0H535.855a15,15,0,0,1,15,15V37.7a0,0,0,0,1,0,0H0a0,0,0,0,1,0,0V15A15,15,0,0,1,15,0Z" transform="translate(112 2207.975)" fill="#fff" opacity="0.149"/>
    <g id="Group_88" data-name="Group 88" transform="translate(131.374 2218.971)">
      <g id="Group_15" data-name="Group 15" transform="translate(0 0)">
        <g id="Group_12" data-name="Group 12">
          <text id="Your_Client_List" data-name="Your Client List" transform="translate(0 13)" fill="#fff" font-size="13" font-family="Montserrat-SemiBold, Montserrat" font-weight="600"><tspan x="0" y="0">Your Client List</tspan></text>
        </g>
      </g>
    </g>
    <text id="Google" transform="translate(145.512 2276.008)" fill="#fff" font-size="12" font-family="Montserrat-SemiBold, Montserrat" font-weight="600"><tspan x="0" y="0">Google</tspan></text>
    <text id="More_Edit" data-name="More / Edit" transform="translate(515.46 2276.008)" fill="#fff" font-size="12" font-family="Montserrat-Regular, Montserrat" opacity="0.237"><tspan x="0" y="0">More / Edit</tspan></text>
    <text id="More_Edit-2" data-name="More / Edit" transform="translate(515.46 2320.374)" fill="#fff" font-size="12" font-family="Montserrat-Regular, Montserrat" opacity="0.237"><tspan x="0" y="0">More / Edit</tspan></text>
    <text id="More_Edit-3" data-name="More / Edit" transform="translate(515.46 2364.739)" fill="#fff" font-size="12" font-family="Montserrat-Regular, Montserrat" opacity="0.237"><tspan x="0" y="0">More / Edit</tspan></text>
    <text id="Shopify" transform="translate(146.228 2320.374)" fill="#fff" font-size="12" font-family="Montserrat-SemiBold, Montserrat" font-weight="600"><tspan x="0" y="0">Shopify</tspan></text>
    <text id="Intel" transform="translate(146.228 2364.739)" fill="#fff" font-size="12" font-family="Montserrat-SemiBold, Montserrat" font-weight="600"><tspan x="0" y="0">Intel</tspan></text>
    <path id="Path_1135" data-name="Path 1135" d="M10.194,0V10.1H0Z" transform="translate(611.326 2361.114) rotate(-45)" fill="#fff" opacity="0.516"/>
    <path id="Path_1136" data-name="Path 1136" d="M10.194,0V10.1H0Z" transform="translate(611.326 2317.464) rotate(-45)" fill="#fff" opacity="0.516"/>
    <path id="Path_1137" data-name="Path 1137" d="M10.194,0V10.1H0Z" transform="translate(611.326 2273.814) rotate(-45)" fill="#fff" opacity="0.516"/>
    <g id="Group_89" data-name="Group 89" transform="translate(344.49 2161.372)">
      <g id="Group_85" data-name="Group 85" transform="translate(0)">
        <g transform="matrix(1, 0, 0, 1, -284.99, -49.5)" filter="url(#Rectangle_22-2)">
          <rect id="Rectangle_22-4" data-name="Rectangle 22" width="410.592" height="168.47" rx="15" transform="translate(284.99 49.5)" fill="#2e2c40"/>
        </g>
      </g>
      <path id="Rectangle_55" data-name="Rectangle 55" d="M15,0H395.592a15,15,0,0,1,15,15V61.976a0,0,0,0,1,0,0H0a0,0,0,0,1,0,0V15A15,15,0,0,1,15,0Z" transform="translate(0)" fill="#fff" opacity="0.149"/>
      <g id="Group_86" data-name="Group 86" transform="translate(31.849 18.076)">
        <g id="Group_15-2" data-name="Group 15" transform="translate(0)">
          <g id="Group_12-2" data-name="Group 12">
            <text id="New_Client" data-name="New Client" transform="translate(0 22)" fill="#fff" font-size="23" font-family="Montserrat-SemiBold, Montserrat" font-weight="600"><tspan x="0" y="0">New Client</tspan></text>
          </g>
        </g>
      </g>
      <line id="Line_8" data-name="Line 8" y2="21.929" transform="translate(373.54 22.811)" fill="none" stroke="#fff" stroke-width="3"/>
      <line id="Line_9" data-name="Line 9" x1="21.442" transform="translate(362.819 34.019)" fill="none" stroke="#fff" stroke-width="3"/>
      <text id="Create_a_new_client_to_bill_for_your_freelance_projects." data-name="Create a new client to bill for your
freelance projects." transform="translate(31.429 93.757)" fill="#fff" font-size="19" font-family="Montserrat-Regular, Montserrat" opacity="0.237"><tspan x="0" y="0">Create a new client to bill for your</tspan><tspan x="0" y="23">freelance projects.</tspan></text>
    </g>
  </g>
</svg>
